<svg width="500" height="500" viewBox="0 0 500 500" fill="none" xmlns="http://www.w3.org/2000/svg">
<rect width="500" height="500" fill="#AEADB1" fill-opacity="0.1"/>
<g clip-path="url(#clip0_485_6)">
<path d="M269.113 276.898L223.102 230.888C219.252 236.267 217 242.867 217 250C217 268.219 231.781 283 250 283C257.133 283 263.733 280.748 269.113 276.898ZM276.898 269.113C280.748 263.733 283 257.133 283 250C283 231.781 268.219 217 250 217C242.867 217 236.267 219.252 230.888 223.102L276.898 269.113ZM294 250C294 274.303 274.303 294 250 294C225.697 294 206 274.303 206 250C206 225.697 225.697 206 250 206C274.303 206 294 225.697 294 250Z" fill="#69696C"/>
</g>
<defs>
<clipPath id="clip0_485_6">
<rect width="88" height="88" fill="white" transform="translate(206 206)"/>
</clipPath>
</defs>
</svg>
